IKResults
version=1
nRows=8
nColumns=40
inDegrees=yes

Units are S.I. units (second, meters, Newtons, ...)
Angles are in degrees.

endheader
time	pelvis_tilt	pelvis_list	pelvis_rotation	pelvis_tx	pelvis_ty	pelvis_tz	hip_flexion_r	hip_adduction_r	hip_rotation_r	knee_angle_r	knee_angle_r_beta	ankle_angle_r	subtalar_angle_r	mtp_angle_r	hip_flexion_l	hip_adduction_l	hip_rotation_l	knee_angle_l	knee_angle_l_beta	ankle_angle_l	subtalar_angle_l	mtp_angle_l	lumbar_extension	lumbar_bending	lumbar_rotation	arm_flex_r	arm_add_r	arm_rot_r	elbow_flex_r	pro_sup_r	wrist_flex_r	wrist_dev_r	arm_flex_l	arm_add_l	arm_rot_l	elbow_flex_l	pro_sup_l	wrist_flex_l	wrist_dev_l
      0.00000000	     16.43262404	      1.83338441	     -0.18662923	     -0.92584749	      0.94857335	     -1.03303281	      2.89707721	     -3.52406244	     -6.23087710	    -56.92138262	     -0.99346554	      4.69922308	    -13.60312517	     11.54618047	    -17.11083744	     -0.99378574	     19.58997207	    -10.75506872	     -0.18771136	      7.24282631	     -4.81723924	     -6.86281172	    -27.30609936	     -3.51812339	     -3.18979185	     -4.25263212	    -10.23356372	      0.60614871	     17.22367183	     89.95437384	      0.00000000	      0.00000000	      6.74974555	     12.57036603	      3.86832780	     27.75044736	     89.95437384	      0.00000000	      0.00000000
      0.01000000	     16.18819367	      1.67233645	     -0.22302881	     -0.91776176	      0.94832469	     -1.03458151	      4.07054916	     -3.47515000	     -6.67762296	    -55.37712071	     -0.96651309	      5.43995318	    -13.73710807	     11.40437168	    -17.43460572	     -0.97964082	     19.58172480	    -10.66939193	     -0.18621602	      7.54796300	     -4.83597570	     -6.79598661	    -27.00108092	     -3.28907359	     -3.32039632	     -4.37011985	    -10.25512065	      0.55374994	     17.11528204	     89.95437384	      0.00000000	      0.00000000	      7.45814158	     12.66484982	      3.65438672	     28.61326720	     89.95437384	      0.00000000	      0.00000000
      0.02000000	     16.27556528	      1.12432330	     -0.09375198	     -0.90938853	      0.94856207	     -1.03563278	      4.60725230	     -2.91379843	     -7.35264231	    -53.30249401	     -0.93030402	      5.87862653	    -13.96593405	     11.46143215	    -18.14732578	     -0.47422537	     19.28189045	    -10.55599808	     -0.18423692	      7.95341969	     -4.55159587	     -6.74675954	    -27.08997585	     -2.62811959	     -3.48111865	     -4.53082925	    -10.24543320	      0.42441420	     17.15541913	     89.95437384	      0.00000000	      0.00000000	      7.91212842	     12.94173378	      3.06560085	     29.97262043	     89.95437384	      0.00000000	      0.00000000
      0.03000000	     15.95260646	      0.96436547	     -0.03966161	     -0.90128752	      0.94795204	     -1.03705379	      5.73735817	     -2.91883398	     -8.05655295	    -51.49364498	     -0.89873365	      6.49872487	    -13.90566046	     11.35067582	    -18.33097453	     -0.40675030	     19.12540798	    -10.59932256	     -0.18499308	      8.36489398	     -4.41201341	     -6.66438175	    -26.74201582	     -2.36319586	     -3.72062204	     -4.62947832	    -10.24252375	      0.30049880	     17.09275254	     89.95437384	      0.00000000	      0.00000000	      8.49594883	     13.13646485	      2.73526138	     31.00300140	     89.95437384	      0.00000000	      0.00000000
      0.04000000	     15.53134550	      0.90518897	     -0.16475587	     -0.89325374	      0.94709936	     -1.03826840	      7.01637399	     -3.10469308	     -8.76888462	    -49.68521441	     -0.86717058	      6.73431632	    -13.64161591	     11.21244932	    -18.38079333	     -0.48921255	     19.22757715	    -10.68268088	     -0.18644795	      8.59221570	     -4.21588774	     -6.55416720	    -26.30958606	     -2.26977961	     -3.78799157	     -4.80332910	    -10.28088949	      0.17632421	     17.13023490	     89.95437384	      0.00000000	      0.00000000	      9.12376894	     13.26871320	      2.54872322	     31.98945292	     89.95437384	      0.00000000	      0.00000000
      0.05000000	     15.82825205	      0.11739262	      0.39406062	     -0.88467828	      0.94740320	     -1.03935275	      6.88361084	     -2.22298298	     -9.83840403	    -46.89443933	     -0.81846237	      7.02989261	    -13.39861940	     11.34222014	    -19.31827861	      0.42556441	     18.53932651	    -10.59493500	     -0.18491650	      9.27288758	     -3.86296985	     -6.50865549	    -26.64326262	     -1.23802687	     -4.20988665	     -4.72700160	    -10.11540099	     -0.47111488	     16.74600237	     89.95437384	      0.00000000	      0.00000000	      9.45914891	     13.77978437	      1.50924697	     33.52805041	     89.95437384	      0.00000000	      0.00000000
      0.06000000	     15.31420178	      0.24179242	      0.20119821	     -0.87634931	      0.94613540	     -1.04056457	      8.20660831	     -2.63689547	    -10.59563396	    -45.05045993	     -0.78627886	      6.96110108	    -12.98955608	     11.21613357	    -19.26926493	      0.12738437	     18.73329150	    -10.68949278	     -0.18656684	      9.46560392	     -3.69516324	     -6.39477005	    -26.10483859	     -1.32420793	     -4.26058012	     -4.98113444	    -10.17037039	     -0.52441979	     16.85222088	     89.95437384	      0.00000000	      0.00000000	     10.06451357	     13.87224114	      1.39148174	     34.43124235	     89.95437384	      0.00000000	      0.00000000
      0.07000000	     15.78058961	     -0.43968428	      0.87046844	     -0.86742798	      0.94647343	     -1.04182239	      7.67292425	     -1.99969709	    -12.15400376	    -41.91233414	     -0.73150823	      6.41298647	    -12.07655333	     11.35858598	    -20.49778005	      0.91522677	     17.86657806	    -10.39861015	     -0.18148998	     10.05600746	     -3.09514298	     -6.22495321	    -26.58518695	     -0.34625480	     -4.71920400	     -5.02369827	     -9.99284517	     -1.53637898	     16.70010955	     89.95437384	      0.00000000	      0.00000000	     10.54764261	     14.32708949	      0.45596807	     35.69174706	     89.95437384	      0.00000000	      0.00000000
